# xmcd CD database file
#
# Track frame offsets:
#	150
#	17628
#	33719
#	57654
#	73091
#	95250
#	111104
#	129401
#	150425
#	171675
#	190280
#	205725
#
# Disc length: 2953 seconds
#
# Revision: 0
# Processed by: cddbd v1.5.2PL0 Copyright (c) Steve Scherf et al.
# Submitted via: CDex 1.51
#
DISCID=aa0b870c
DTITLE=16 Horsepower - Yours, Truly 1
DYEAR=2011
DGENRE=Country
TTITLE0=Black Soul Choir
TTITLE1=American Wheeze
TTITLE2=Splinters
TTITLE3=Haw
TTITLE4=For Heaven's Sake
TTITLE5=Clogger
TTITLE6=Hutterite Mile
TTITLE7=Poor Mouth
TTITLE8=Cinder Alley
TTITLE9=Low Estate
TTITLE10=I Seen What I Saw
TTITLE11=Strawfoot
EXTD=YEAR: 2011
EXTT0=
EXTT1=
EXTT2=
EXTT3=
EXTT4=
EXTT5=
EXTT6=
EXTT7=
EXTT8=
EXTT9=
EXTT10=
EXTT11=
PLAYORDER=
